# xmcd
#
# Track frame offsets:
# 150
# 25617
# 41003
# 59376
# 76734
# 114303
# 137043
# 152398
# 166398
# 195671
#
# Disc length: 2797 seconds
#
# Revision: 1
# Processed by: cddbd v1.5.2PL0 Copyright (c) Steve Scherf et al.
# Submitted via: CedeCatalogueitor 2.6.0.6 http://personales.ya.com/cdcatalogueitor
#
DISCID=710aeb0a
DTITLE=Julio De La Rosa - Pequeños Transtornos Sin Importancia
DYEAR=1900
DGENRE=
TTITLE0=Colecciono Sabotajes
TTITLE1=Gigante
TTITLE2=Kiss Kiss Kiss Me
TTITLE3=Un Corazón Lleno De Escombros
TTITLE4=La Fiera Dentro
TTITLE5=Borrón Y Cuenta Nueva
TTITLE6=Tarde A Todas Partes
TTITLE7=Maldiciones Comunes
TTITLE8=Glorieta De Trampas
TTITLE9=El Amor Saludable
EXTD=
EXTT0=
EXTT1=
EXTT2=
EXTT3=
EXTT4=
EXTT5=
EXTT6=
EXTT7=
EXTT8=
EXTT9=
PLAYORDER=
